<svg xmlns="http://www.w3.org/2000/svg" width="1024" height="1024" viewBox="0 0 1024 1024">
  <defs>
    <linearGradient id="bg" x1="0" y1="0" x2="0" y2="1">
      <stop offset="0%" stop-color="#1b4a86"/>
      <stop offset="100%" stop-color="#123768"/>
    </linearGradient>
    <radialGradient id="ballFill" cx="35%" cy="28%" r="70%">
      <stop offset="0%" stop-color="#f4ff8d"/>
      <stop offset="35%" stop-color="#e5ff2c"/>
      <stop offset="70%" stop-color="#b7db00"/>
      <stop offset="100%" stop-color="#7ca300"/>
    </radialGradient>
    <radialGradient id="ballGlow" cx="38%" cy="30%" r="55%">
      <stop offset="0%" stop-color="#ffffff" stop-opacity="0.95"/>
      <stop offset="100%" stop-color="#ffffff" stop-opacity="0"/>
    </radialGradient>
    <clipPath id="ballClip">
      <circle cx="826" cy="478" r="122"/>
    </clipPath>
    <filter id="ballShadow" x="-30%" y="-30%" width="160%" height="160%">
      <feDropShadow dx="0" dy="18" stdDeviation="16" flood-color="#081b35" flood-opacity="0.45"/>
    </filter>
    <filter id="textShadow" x="-20%" y="-20%" width="140%" height="140%">
      <feDropShadow dx="0" dy="10" stdDeviation="8" flood-color="#0a1e38" flood-opacity="0.22"/>
    </filter>
  </defs>

  <rect x="40" y="52" width="944" height="944" rx="210" fill="url(#bg)"/>

  <g filter="url(#textShadow)">
    <text
      x="138"
      y="640"
      fill="#ffffff"
      font-family="Avenir Next, Helvetica Neue, Arial, sans-serif"
      font-size="296"
      font-weight="900"
      letter-spacing="-22"
    >N-G</text>
  </g>

  <g filter="url(#ballShadow)">
    <circle cx="826" cy="478" r="122" fill="url(#ballFill)"/>
    <ellipse cx="782" cy="424" rx="66" ry="42" fill="url(#ballGlow)" opacity="0.7"/>
    <circle cx="826" cy="478" r="116" fill="none" stroke="#efff8d" stroke-opacity="0.24" stroke-width="5"/>
    <g clip-path="url(#ballClip)">
      <path
        d="M792 314 C736 360 718 420 718 478 C718 536 736 596 792 642"
        fill="none"
        stroke="#ffffff"
        stroke-width="18"
        stroke-linecap="round"
        opacity="0.98"
      />
      <path
        d="M860 314 C916 360 934 420 934 478 C934 536 916 596 860 642"
        fill="none"
        stroke="#ffffff"
        stroke-width="18"
        stroke-linecap="round"
        opacity="0.98"
      />
      <path
        d="M704 470 C748 446 786 436 826 436 C866 436 904 446 948 470"
        fill="none"
        stroke="#ffffff"
        stroke-width="10"
        stroke-linecap="round"
        opacity="0.28"
      />
    </g>
  </g>
</svg>
